<mxfile host="Electron" modified="2023-11-11T02:39:19.510Z" agent="Mozilla/5.0 (Windows NT 10.0; WOW64) AppleWebKit/537.36 (KHTML, like Gecko) draw.io/22.0.3 Chrome/114.0.5735.289 Electron/25.8.4 Safari/537.36" etag="DKyhfpVAhXwMjE_9SnnJ" version="22.0.3" type="device">
  <diagram name="Login" id="jI7SdSk_fH7y-azFQwMa">
    <mxGraphModel dx="874" dy="532" grid="1" gridSize="10" guides="1" tooltips="1" connect="1" arrows="1" fold="1" page="1" pageScale="1" pageWidth="850" pageHeight="1100" math="0" shadow="0">
      <root>
        <mxCell id="0" />
        <mxCell id="1" parent="0" />
        <mxCell id="N3r3YRJmbVSR5obsnkOY-11" value="" style="whiteSpace=wrap;html=1;aspect=fixed;" vertex="1" parent="1">
          <mxGeometry x="200" y="40" width="440" height="440" as="geometry" />
        </mxCell>
        <mxCell id="N3r3YRJmbVSR5obsnkOY-4" value="&lt;font face=&quot;Georgia&quot;&gt;&lt;b&gt;My Notes&lt;/b&gt;&lt;/font&gt;" style="text;html=1;strokeColor=none;fillColor=none;align=center;verticalAlign=middle;whiteSpace=wrap;rounded=0;fontSize=20;" vertex="1" parent="1">
          <mxGeometry x="355" y="60" width="130" height="30" as="geometry" />
        </mxCell>
        <mxCell id="N3r3YRJmbVSR5obsnkOY-5" value="Forgot Password" style="text;html=1;strokeColor=none;fillColor=none;align=center;verticalAlign=middle;whiteSpace=wrap;rounded=0;" vertex="1" parent="1">
          <mxGeometry x="520" y="220" width="100" height="30" as="geometry" />
        </mxCell>
        <mxCell id="N3r3YRJmbVSR5obsnkOY-6" value="Username/Email.." style="rounded=1;whiteSpace=wrap;html=1;align=left;" vertex="1" parent="1">
          <mxGeometry x="230" y="120" width="380" height="40" as="geometry" />
        </mxCell>
        <mxCell id="N3r3YRJmbVSR5obsnkOY-7" value="Password.." style="rounded=1;whiteSpace=wrap;html=1;align=left;" vertex="1" parent="1">
          <mxGeometry x="230" y="170" width="380" height="40" as="geometry" />
        </mxCell>
        <mxCell id="N3r3YRJmbVSR5obsnkOY-8" value="Login" style="rounded=0;whiteSpace=wrap;html=1;" vertex="1" parent="1">
          <mxGeometry x="430" y="250" width="180" height="30" as="geometry" />
        </mxCell>
        <mxCell id="N3r3YRJmbVSR5obsnkOY-9" value="Sign Up" style="rounded=0;whiteSpace=wrap;html=1;" vertex="1" parent="1">
          <mxGeometry x="230" y="250" width="180" height="30" as="geometry" />
        </mxCell>
      </root>
    </mxGraphModel>
  </diagram>
</mxfile>
